<?xml version="1.0" encoding="UTF-8"?>
<svg width="256" height="256" viewBox="0 0 256 256" xmlns="http://www.w3.org/2000/svg">
  <defs>
    <radialGradient id="face" cx="50%" cy="40%" r="60%">
      <stop offset="0%" style="stop-color:#ffdbdb"/>
      <stop offset="100%" style="stop-color:#ffb3ba"/>
    </radialGradient>
    <radialGradient id="hair" cx="50%" cy="30%" r="70%">
      <stop offset="0%" style="stop-color:#8b4513"/>
      <stop offset="100%" style="stop-color:#654321"/>
    </radialGradient>
  </defs>
  
  <!-- Hair -->
  <ellipse cx="128" cy="100" rx="90" ry="80" fill="url(#hair)"/>
  
  <!-- Face -->
  <ellipse cx="128" cy="130" rx="70" ry="75" fill="url(#face)"/>
  
  <!-- Eyes -->
  <ellipse cx="110" cy="120" rx="8" ry="12" fill="#000"/>
  <ellipse cx="146" cy="120" rx="8" ry="12" fill="#000"/>
  <ellipse cx="112" cy="118" rx="3" ry="4" fill="#fff"/>
  <ellipse cx="148" cy="118" rx="3" ry="4" fill="#fff"/>
  
  <!-- Heart eyes (obsessive) -->
  <path d="M 105 115 C 102 112, 98 112, 95 115 C 92 118, 95 122, 105 125 C 115 122, 118 118, 115 115 C 112 112, 108 112, 105 115 Z" fill="#ff1493"/>
  <path d="M 141 115 C 138 112, 134 112, 131 115 C 128 118, 131 122, 141 125 C 151 122, 154 118, 151 115 C 148 112, 144 112, 141 115 Z" fill="#ff1493"/>
  
  <!-- Mouth -->
  <ellipse cx="128" cy="145" rx="15" ry="8" fill="#ff69b4"/>
  
  <!-- Blush -->
  <ellipse cx="90" cy="135" rx="12" ry="8" fill="#ff69b4" opacity="0.5"/>
  <ellipse cx="166" cy="135" rx="12" ry="8" fill="#ff69b4" opacity="0.5"/>
  
  <!-- Hearts floating around -->
  <path d="M 50 80 C 47 77, 43 77, 40 80 C 37 83, 40 87, 50 90 C 60 87, 63 83, 60 80 C 57 77, 53 77, 50 80 Z" fill="#ff1493" opacity="0.7"/>
  <path d="M 200 70 C 197 67, 193 67, 190 70 C 187 73, 190 77, 200 80 C 210 77, 213 73, 210 70 C 207 67, 203 67, 200 70 Z" fill="#ff1493" opacity="0.7"/>
  <path d="M 220 150 C 217 147, 213 147, 210 150 C 207 153, 210 157, 220 160 C 230 157, 233 153, 230 150 C 227 147, 223 147, 220 150 Z" fill="#ff1493" opacity="0.7"/>
  
  <!-- Warning text -->
  <text x="128" y="220" text-anchor="middle" font-family="Arial, sans-serif" font-size="16" font-weight="bold" fill="#ff1493">OBSESSIVE</text>
  <text x="128" y="240" text-anchor="middle" font-family="Arial, sans-serif" font-size="12" fill="#666">WARNING!</text>
</svg>